<svg width="25" height="25" viewBox="0 0 25 25" fill="none" xmlns="http://www.w3.org/2000/svg">
<path fill-rule="evenodd" clip-rule="evenodd" d="M6.82857 9.09358L7.43157 16.2656C7.47557 16.8176 7.92657 17.2316 8.47757 17.2316H8.48157H19.3926H19.3946C19.9156 17.2316 20.3606 16.8436 20.4346 16.3286L21.3846 9.76958C21.4066 9.61358 21.3676 9.45758 21.2726 9.33158C21.1786 9.20458 21.0406 9.12258 20.8846 9.10058C20.6756 9.10858 12.0026 9.09658 6.82857 9.09358ZM8.47557 18.7316C7.15857 18.7316 6.04357 17.7036 5.93657 16.3886L5.02057 5.49458L3.51357 5.23458C3.10457 5.16258 2.83157 4.77558 2.90157 4.36658C2.97357 3.95758 3.36857 3.69158 3.76857 3.75558L5.84857 4.11558C6.18357 4.17458 6.43857 4.45258 6.46757 4.79258L6.70257 7.59358C20.9786 7.59958 21.0246 7.60658 21.0936 7.61458C21.6506 7.69558 22.1406 7.98658 22.4746 8.43458C22.8086 8.88158 22.9486 9.43258 22.8686 9.98458L21.9196 16.5426C21.7406 17.7906 20.6566 18.7316 19.3966 18.7316H19.3916H8.48357H8.47557Z" fill="white"/>
<path fill-rule="evenodd" clip-rule="evenodd" d="M17.7876 12.7891H15.0156C14.6006 12.7891 14.2656 12.4531 14.2656 12.0391C14.2656 11.6251 14.6006 11.2891 15.0156 11.2891H17.7876C18.2016 11.2891 18.5376 11.6251 18.5376 12.0391C18.5376 12.4531 18.2016 12.7891 17.7876 12.7891Z" fill="white"/>
<path fill-rule="evenodd" clip-rule="evenodd" d="M8.045 21.4492C8.346 21.4492 8.589 21.6922 8.589 21.9932C8.589 22.2942 8.346 22.5382 8.045 22.5382C7.743 22.5382 7.5 22.2942 7.5 21.9932C7.5 21.6922 7.743 21.4492 8.045 21.4492Z" fill="white"/>
<mask id="mask0_1286_1034" style="mask-type:luminance" maskUnits="userSpaceOnUse" x="7" y="21" width="2" height="2">
<path fill-rule="evenodd" clip-rule="evenodd" d="M7.5 21.9932C7.5 22.2952 7.743 22.5392 8.046 22.5392C8.347 22.5392 8.59 22.2952 8.59 21.9932C8.59 21.6922 8.347 21.4492 8.046 21.4492C7.743 21.4492 7.5 21.6922 7.5 21.9932Z" fill="white"/>
</mask>
<g mask="url(#mask0_1286_1034)">
<path fill-rule="evenodd" clip-rule="evenodd" d="M2.50195 27.5382H13.591V16.4492H2.50195V27.5382Z" fill="white"/>
</g>
<path fill-rule="evenodd" clip-rule="evenodd" d="M8.044 21.7882C7.931 21.7882 7.839 21.8802 7.839 21.9932C7.839 22.2202 8.25 22.2202 8.25 21.9932C8.25 21.8802 8.157 21.7882 8.044 21.7882ZM8.044 23.2882C7.33 23.2882 6.75 22.7072 6.75 21.9932C6.75 21.2792 7.33 20.6992 8.044 20.6992C8.758 20.6992 9.339 21.2792 9.339 21.9932C9.339 22.7072 8.758 23.2882 8.044 23.2882Z" fill="white"/>
<path fill-rule="evenodd" clip-rule="evenodd" d="M19.3263 21.4492C19.6273 21.4492 19.8713 21.6922 19.8713 21.9932C19.8713 22.2942 19.6273 22.5382 19.3263 22.5382C19.0243 22.5382 18.7812 22.2942 18.7812 21.9932C18.7812 21.6922 19.0243 21.4492 19.3263 21.4492Z" fill="white"/>
<mask id="mask1_1286_1034" style="mask-type:luminance" maskUnits="userSpaceOnUse" x="18" y="21" width="2" height="2">
<path fill-rule="evenodd" clip-rule="evenodd" d="M18.7812 21.9932C18.7812 22.2952 19.0243 22.5392 19.3263 22.5392C19.6263 22.5392 19.8713 22.2952 19.8713 21.9932C19.8713 21.6922 19.6263 21.4492 19.3263 21.4492C19.0243 21.4492 18.7812 21.6922 18.7812 21.9932Z" fill="white"/>
</mask>
<g mask="url(#mask1_1286_1034)">
<path fill-rule="evenodd" clip-rule="evenodd" d="M13.7812 27.5382H24.8713V16.4492H13.7812V27.5382Z" fill="white"/>
</g>
<path fill-rule="evenodd" clip-rule="evenodd" d="M19.3253 21.7882C19.2133 21.7882 19.1213 21.8802 19.1213 21.9932C19.1222 22.2222 19.5323 22.2202 19.5312 21.9932C19.5312 21.8802 19.4382 21.7882 19.3253 21.7882ZM19.3253 23.2882C18.6113 23.2882 18.0312 22.7072 18.0312 21.9932C18.0312 21.2792 18.6113 20.6992 19.3253 20.6992C20.0403 20.6992 20.6212 21.2792 20.6212 21.9932C20.6212 22.7072 20.0403 23.2882 19.3253 23.2882Z" fill="white"/>
</svg>
