<svg width="20" height="21" viewBox="0 0 20 21" fill="none" xmlns="http://www.w3.org/2000/svg">
<path fill-rule="evenodd" clip-rule="evenodd" d="M5.27381 7.92108L5.77631 13.8977C5.81298 14.3577 6.18881 14.7027 6.64798 14.7027H6.65131H15.7438H15.7455C16.1796 14.7027 16.5505 14.3794 16.6121 13.9502L17.4038 8.48442C17.4221 8.35442 17.3896 8.22442 17.3105 8.11942C17.2321 8.01358 17.1171 7.94525 16.9871 7.92692C16.813 7.93358 9.58548 7.92358 5.27381 7.92108ZM6.64631 15.9527C5.54881 15.9527 4.61964 15.0961 4.53048 14.0002L3.76714 4.92192L2.51131 4.70525C2.17048 4.64525 1.94298 4.32275 2.00131 3.98192C2.06131 3.64108 2.39048 3.41942 2.72381 3.47275L4.45714 3.77275C4.73631 3.82192 4.94881 4.05358 4.97298 4.33692L5.16881 6.67108C17.0655 6.67608 17.1038 6.68192 17.1613 6.68858C17.6255 6.75608 18.0338 6.99858 18.3121 7.37192C18.5905 7.74442 18.7071 8.20358 18.6405 8.66358L17.8496 14.1286C17.7005 15.1686 16.7971 15.9527 15.7471 15.9527H15.743H6.65298H6.64631Z" fill="white"/>
<path fill-rule="evenodd" clip-rule="evenodd" d="M14.4077 11H12.0977C11.7518 11 11.4727 10.72 11.4727 10.375C11.4727 10.03 11.7518 9.75 12.0977 9.75H14.4077C14.7527 9.75 15.0327 10.03 15.0327 10.375C15.0327 10.72 14.7527 11 14.4077 11Z" fill="white"/>
<path fill-rule="evenodd" clip-rule="evenodd" d="M6.28815 18.2148C6.53898 18.2148 6.74148 18.4173 6.74148 18.6682C6.74148 18.919 6.53898 19.1223 6.28815 19.1223C6.03648 19.1223 5.83398 18.919 5.83398 18.6682C5.83398 18.4173 6.03648 18.2148 6.28815 18.2148Z" fill="white"/>
<mask id="mask0_1253_505" style="mask-type:luminance" maskUnits="userSpaceOnUse" x="5" y="18" width="2" height="2">
<path fill-rule="evenodd" clip-rule="evenodd" d="M5.83398 18.6682C5.83398 18.9198 6.03648 19.1232 6.28898 19.1232C6.53982 19.1232 6.74232 18.9198 6.74232 18.6682C6.74232 18.4173 6.53982 18.2148 6.28898 18.2148C6.03648 18.2148 5.83398 18.4173 5.83398 18.6682Z" fill="white"/>
</mask>
<g mask="url(#mask0_1253_505)">
<path fill-rule="evenodd" clip-rule="evenodd" d="M1.66797 23.2877H10.9088V14.0469H1.66797V23.2877Z" fill="white"/>
</g>
<path fill-rule="evenodd" clip-rule="evenodd" d="M6.28732 18.4973C6.19315 18.4973 6.11648 18.574 6.11648 18.6682C6.11648 18.8573 6.45898 18.8573 6.45898 18.6682C6.45898 18.574 6.38148 18.4973 6.28732 18.4973ZM6.28732 19.7473C5.69232 19.7473 5.20898 19.2632 5.20898 18.6682C5.20898 18.0732 5.69232 17.5898 6.28732 17.5898C6.88232 17.5898 7.36648 18.0732 7.36648 18.6682C7.36648 19.2632 6.88232 19.7473 6.28732 19.7473Z" fill="white"/>
<path fill-rule="evenodd" clip-rule="evenodd" d="M15.6885 18.2148C15.9394 18.2148 16.1427 18.4173 16.1427 18.6682C16.1427 18.919 15.9394 19.1223 15.6885 19.1223C15.4369 19.1223 15.2344 18.919 15.2344 18.6682C15.2344 18.4173 15.4369 18.2148 15.6885 18.2148Z" fill="white"/>
<mask id="mask1_1253_505" style="mask-type:luminance" maskUnits="userSpaceOnUse" x="15" y="18" width="2" height="2">
<path fill-rule="evenodd" clip-rule="evenodd" d="M15.2344 18.6682C15.2344 18.9198 15.4369 19.1232 15.6885 19.1232C15.9385 19.1232 16.1427 18.9198 16.1427 18.6682C16.1427 18.4173 15.9385 18.2148 15.6885 18.2148C15.4369 18.2148 15.2344 18.4173 15.2344 18.6682Z" fill="white"/>
</mask>
<g mask="url(#mask1_1253_505)">
<path fill-rule="evenodd" clip-rule="evenodd" d="M11.0684 23.2877H20.31V14.0469H11.0684V23.2877Z" fill="white"/>
</g>
<path fill-rule="evenodd" clip-rule="evenodd" d="M15.6877 18.4973C15.5944 18.4973 15.5177 18.574 15.5177 18.6682C15.5185 18.859 15.8602 18.8573 15.8594 18.6682C15.8594 18.574 15.7819 18.4973 15.6877 18.4973ZM15.6877 19.7473C15.0927 19.7473 14.6094 19.2632 14.6094 18.6682C14.6094 18.0732 15.0927 17.5898 15.6877 17.5898C16.2835 17.5898 16.7677 18.0732 16.7677 18.6682C16.7677 19.2632 16.2835 19.7473 15.6877 19.7473Z" fill="white"/>
</svg>
