<svg width="21" height="21" viewBox="0 0 21 21" fill="none" xmlns="http://www.w3.org/2000/svg">
<path fill-rule="evenodd" clip-rule="evenodd" d="M5.66443 7.92108L6.16693 13.8977C6.2036 14.3577 6.57943 14.7027 7.0386 14.7027H7.04193H16.1344H16.1361C16.5703 14.7027 16.9411 14.3794 17.0028 13.9502L17.7944 8.48442C17.8128 8.35442 17.7803 8.22442 17.7011 8.11942C17.6228 8.01358 17.5078 7.94525 17.3778 7.92692C17.2036 7.93358 9.9761 7.92358 5.66443 7.92108ZM7.03693 15.9527C5.93943 15.9527 5.01027 15.0961 4.9211 14.0002L4.15777 4.92192L2.90193 4.70525C2.5611 4.64525 2.3336 4.32275 2.39193 3.98192C2.45193 3.64108 2.7811 3.41942 3.11443 3.47275L4.84777 3.77275C5.12693 3.82192 5.33943 4.05358 5.3636 4.33692L5.55943 6.67108C17.4561 6.67608 17.4944 6.68192 17.5519 6.68858C18.0161 6.75608 18.4244 6.99858 18.7028 7.37192C18.9811 7.74442 19.0978 8.20358 19.0311 8.66358L18.2403 14.1286C18.0911 15.1686 17.1878 15.9527 16.1378 15.9527H16.1336H7.0436H7.03693Z" fill="#737373"/>
<path fill-rule="evenodd" clip-rule="evenodd" d="M14.7983 11H12.4883C12.1424 11 11.8633 10.72 11.8633 10.375C11.8633 10.03 12.1424 9.75 12.4883 9.75H14.7983C15.1433 9.75 15.4233 10.03 15.4233 10.375C15.4233 10.72 15.1433 11 14.7983 11Z" fill="#737373"/>
<path fill-rule="evenodd" clip-rule="evenodd" d="M6.67878 18.2148C6.92961 18.2148 7.13211 18.4173 7.13211 18.6682C7.13211 18.919 6.92961 19.1223 6.67878 19.1223C6.42711 19.1223 6.22461 18.919 6.22461 18.6682C6.22461 18.4173 6.42711 18.2148 6.67878 18.2148Z" fill="#737373"/>
<mask id="mask0_1253_597" style="mask-type:luminance" maskUnits="userSpaceOnUse" x="6" y="18" width="2" height="2">
<path fill-rule="evenodd" clip-rule="evenodd" d="M6.22461 18.6682C6.22461 18.9198 6.42711 19.1232 6.67961 19.1232C6.93044 19.1232 7.13294 18.9198 7.13294 18.6682C7.13294 18.4173 6.93044 18.2148 6.67961 18.2148C6.42711 18.2148 6.22461 18.4173 6.22461 18.6682Z" fill="white"/>
</mask>
<g mask="url(#mask0_1253_597)">
<path fill-rule="evenodd" clip-rule="evenodd" d="M2.05859 23.2877H11.2994V14.0469H2.05859V23.2877Z" fill="#737373"/>
</g>
<path fill-rule="evenodd" clip-rule="evenodd" d="M6.67794 18.4973C6.58378 18.4973 6.50711 18.574 6.50711 18.6682C6.50711 18.8573 6.84961 18.8573 6.84961 18.6682C6.84961 18.574 6.77211 18.4973 6.67794 18.4973ZM6.67794 19.7473C6.08294 19.7473 5.59961 19.2632 5.59961 18.6682C5.59961 18.0732 6.08294 17.5898 6.67794 17.5898C7.27294 17.5898 7.75711 18.0732 7.75711 18.6682C7.75711 19.2632 7.27294 19.7473 6.67794 19.7473Z" fill="#737373"/>
<path fill-rule="evenodd" clip-rule="evenodd" d="M16.0792 18.2148C16.33 18.2148 16.5333 18.4173 16.5333 18.6682C16.5333 18.919 16.33 19.1223 16.0792 19.1223C15.8275 19.1223 15.625 18.919 15.625 18.6682C15.625 18.4173 15.8275 18.2148 16.0792 18.2148Z" fill="#737373"/>
<mask id="mask1_1253_597" style="mask-type:luminance" maskUnits="userSpaceOnUse" x="15" y="18" width="2" height="2">
<path fill-rule="evenodd" clip-rule="evenodd" d="M15.625 18.6682C15.625 18.9198 15.8275 19.1232 16.0792 19.1232C16.3292 19.1232 16.5333 18.9198 16.5333 18.6682C16.5333 18.4173 16.3292 18.2148 16.0792 18.2148C15.8275 18.2148 15.625 18.4173 15.625 18.6682Z" fill="white"/>
</mask>
<g mask="url(#mask1_1253_597)">
<path fill-rule="evenodd" clip-rule="evenodd" d="M11.459 23.2877H20.7007V14.0469H11.459V23.2877Z" fill="#737373"/>
</g>
<path fill-rule="evenodd" clip-rule="evenodd" d="M16.0783 18.4973C15.985 18.4973 15.9083 18.574 15.9083 18.6682C15.9092 18.859 16.2508 18.8573 16.25 18.6682C16.25 18.574 16.1725 18.4973 16.0783 18.4973ZM16.0783 19.7473C15.4833 19.7473 15 19.2632 15 18.6682C15 18.0732 15.4833 17.5898 16.0783 17.5898C16.6742 17.5898 17.1583 18.0732 17.1583 18.6682C17.1583 19.2632 16.6742 19.7473 16.0783 19.7473Z" fill="#737373"/>
</svg>
