<svg width="21" height="21" viewBox="0 0 21 21" fill="none" xmlns="http://www.w3.org/2000/svg">
<path fill-rule="evenodd" clip-rule="evenodd" d="M10.1947 8.45703C9.08638 8.45703 8.18555 9.3587 8.18555 10.467C8.18555 11.5745 9.08638 12.4754 10.1947 12.4754C11.303 12.4754 12.2047 11.5745 12.2047 10.467C12.2047 9.3587 11.303 8.45703 10.1947 8.45703ZM10.1947 13.7254C8.39721 13.7254 6.93555 12.2637 6.93555 10.467C6.93555 8.66953 8.39721 7.20703 10.1947 7.20703C11.9922 7.20703 13.4547 8.66953 13.4547 10.467C13.4547 12.2637 11.9922 13.7254 10.1947 13.7254Z" fill="#737373"/>
<mask id="mask0_1253_1607" style="mask-type:luminance" maskUnits="userSpaceOnUse" x="1" y="3" width="18" height="15">
<path fill-rule="evenodd" clip-rule="evenodd" d="M1.86133 3.75781H18.5279V17.1786H1.86133V3.75781Z" fill="white"/>
</mask>
<g mask="url(#mask0_1253_1607)">
<path fill-rule="evenodd" clip-rule="evenodd" d="M3.16945 10.4684C4.71945 13.8926 7.33029 15.9284 10.1945 15.9293C13.0586 15.9284 15.6695 13.8926 17.2195 10.4684C15.6695 7.0451 13.0586 5.00927 10.1945 5.00844C7.33112 5.00927 4.71945 7.0451 3.16945 10.4684ZM10.1961 17.1793H10.1928H10.192C6.74529 17.1768 3.65029 14.7609 1.91195 10.7151C1.84445 10.5576 1.84445 10.3793 1.91195 10.2218C3.65029 6.17677 6.74612 3.76094 10.192 3.75844C10.1936 3.7576 10.1936 3.7576 10.1945 3.75844C10.1961 3.7576 10.1961 3.7576 10.197 3.75844C13.6436 3.76094 16.7386 6.17677 18.477 10.2218C18.5453 10.3793 18.5453 10.5576 18.477 10.7151C16.7395 14.7609 13.6436 17.1768 10.197 17.1793H10.1961Z" fill="#737373"/>
</g>
</svg>
