<svg width="9" height="17" viewBox="0 0 9 17" fill="none" xmlns="http://www.w3.org/2000/svg">
<path d="M8.49362 5.4327H5.90862V3.7387C5.89448 3.63783 5.90282 3.53508 5.93303 3.4378C5.96325 3.34053 6.0146 3.25114 6.0834 3.17603C6.1522 3.10092 6.23676 3.04195 6.33102 3.00334C6.42527 2.96473 6.5269 2.94744 6.62862 2.9527H8.45563V0.152699L5.93563 0.1387C5.47658 0.10263 5.01516 0.166461 4.58315 0.325799C4.15113 0.485138 3.75878 0.736199 3.43309 1.0617C3.1074 1.3872 2.8561 1.77941 2.69651 2.21133C2.53692 2.64326 2.47282 3.10463 2.50863 3.5637V5.4327H0.890625V8.3217H2.50863V16.4967H5.90862V8.3217H8.20162L8.49362 5.4327Z" fill="#737373"/>
</svg>
