<svg width="21" height="21" viewBox="0 0 21 21" fill="none" xmlns="http://www.w3.org/2000/svg">
<mask id="mask0_1253_1597" style="mask-type:luminance" maskUnits="userSpaceOnUse" x="1" y="2" width="18" height="18">
<path fill-rule="evenodd" clip-rule="evenodd" d="M1.86133 2.92578H18.9218V19.1766H1.86133V2.92578Z" fill="white"/>
</mask>
<g mask="url(#mask0_1253_1597)">
<path fill-rule="evenodd" clip-rule="evenodd" d="M3.38129 10.5284C4.54963 14.1634 9.16546 17.1025 10.3921 17.83C11.623 17.095 16.2721 14.1234 17.403 10.5317C18.1455 8.21005 17.4563 5.26921 14.718 4.38671C13.3913 3.96088 11.8438 4.22005 10.7755 5.04671C10.5521 5.21838 10.2421 5.22171 10.0171 5.05171C8.88546 4.20088 7.40713 3.95171 6.05963 4.38671C3.32546 5.26838 2.63879 8.20921 3.38129 10.5284ZM10.393 19.1767C10.2896 19.1767 10.1871 19.1517 10.0938 19.1009C9.83296 18.9584 3.68879 15.5717 2.19129 10.91C2.19046 10.91 2.19046 10.9092 2.19046 10.9092C1.25046 7.97421 2.29713 4.28588 5.67629 3.19671C7.26296 2.68338 8.99213 2.90921 10.3905 3.79171C11.7455 2.93505 13.5455 2.69838 15.1005 3.19671C18.483 4.28755 19.533 7.97505 18.5938 10.9092C17.1446 15.5175 10.9555 18.955 10.693 19.0992C10.5996 19.1509 10.4963 19.1767 10.393 19.1767Z" fill="#737373"/>
</g>
<path fill-rule="evenodd" clip-rule="evenodd" d="M15.3235 9.27935C15.001 9.27935 14.7277 9.03185 14.701 8.70519C14.646 8.02019 14.1877 7.44185 13.5352 7.23102C13.206 7.12435 13.026 6.77185 13.1319 6.44435C13.2394 6.11602 13.5885 5.93769 13.9185 6.04102C15.0544 6.40852 15.8502 7.41435 15.9477 8.60352C15.9752 8.94769 15.7194 9.24935 15.3752 9.27685C15.3577 9.27852 15.341 9.27935 15.3235 9.27935Z" fill="#737373"/>
</svg>
