<svg width="17" height="17" viewBox="0 0 17 17" fill="none" xmlns="http://www.w3.org/2000/svg">
<path d="M8.69178 4.64844C7.87277 4.64844 7.07215 4.8913 6.39117 5.34632C5.71018 5.80134 5.17942 6.44808 4.866 7.20474C4.55258 7.96141 4.47057 8.79403 4.63035 9.59731C4.79013 10.4006 5.18452 11.1384 5.76365 11.7176C6.34278 12.2967 7.08064 12.6911 7.88391 12.8509C8.68719 13.0106 9.51981 12.9286 10.2765 12.6152C11.0331 12.3018 11.6799 11.771 12.1349 11.0901C12.5899 10.4091 12.8328 9.60845 12.8328 8.78944C12.8307 7.69182 12.3937 6.63977 11.6176 5.86364C10.8414 5.08751 9.7894 4.65055 8.69178 4.64844ZM8.69178 11.4424C8.16707 11.4424 7.65414 11.2868 7.21785 10.9953C6.78157 10.7038 6.44153 10.2895 6.24073 9.8047C6.03993 9.31992 5.98739 8.78649 6.08976 8.27186C6.19213 7.75723 6.4448 7.28451 6.81583 6.91348C7.18686 6.54245 7.65958 6.28978 8.17421 6.18741C8.68884 6.08505 9.22227 6.13759 9.70704 6.33838C10.1918 6.53918 10.6062 6.87923 10.8977 7.31551C11.1892 7.75179 11.3448 8.26472 11.3448 8.78944C11.3416 9.49208 11.0611 10.1651 10.5643 10.6619C10.0674 11.1588 9.39443 11.4393 8.69178 11.4424Z" fill="#737373"/>
<path d="M12.9946 5.48928C13.5127 5.48928 13.9326 5.06932 13.9326 4.55128C13.9326 4.03324 13.5127 3.61328 12.9946 3.61328C12.4766 3.61328 12.0566 4.03324 12.0566 4.55128C12.0566 5.06932 12.4766 5.48928 12.9946 5.48928Z" fill="#737373"/>
<path d="M15.4202 2.12312C14.9737 1.68218 14.4418 1.33712 13.8571 1.1091C13.2724 0.881083 12.6474 0.774917 12.0202 0.797116H5.35921C4.73333 0.759334 4.10655 0.854787 3.52029 1.07717C2.93403 1.29955 2.40163 1.64379 1.95826 2.08717C1.51489 2.53054 1.17064 3.06294 0.948261 3.6492C0.725881 4.23546 0.630428 4.86223 0.66821 5.48812V12.1201C0.644611 12.7596 0.753112 13.3971 0.986939 13.9927C1.22077 14.5884 1.57489 15.1295 2.02721 15.5821C2.93838 16.4297 4.14737 16.8833 5.39121 16.8441H11.9912C13.2464 16.8867 14.4678 16.4334 15.3912 15.5821C15.8346 15.1314 16.181 14.5946 16.4091 14.0048C16.6371 13.4151 16.742 12.7849 16.7172 12.1531V5.48812C16.7367 4.86904 16.6319 4.25233 16.4092 3.67439C16.1864 3.09645 15.8501 2.56899 15.4202 2.12312ZM15.2912 12.1521C15.3068 12.5893 15.2315 13.025 15.07 13.4315C14.9086 13.8381 14.6645 14.2067 14.3532 14.5141C13.7047 15.0902 12.8578 15.3917 11.9912 15.3551H5.39121C4.5246 15.3917 3.67768 15.0902 3.02921 14.5141C2.73002 14.1944 2.49847 13.8176 2.34846 13.4062C2.19845 12.9948 2.13306 12.5574 2.15621 12.1201V5.48812C2.13586 5.05598 2.20267 4.62417 2.35264 4.21839C2.50262 3.8126 2.73271 3.44114 3.02921 3.12612C3.67467 2.545 4.52373 2.24269 5.39121 2.28512H12.0552C12.4873 2.26477 12.9192 2.33157 13.3249 2.48155C13.7307 2.63153 14.1022 2.86162 14.4172 3.15812C14.9974 3.79299 15.3101 4.62731 15.2902 5.48712V12.1511L15.2912 12.1521Z" fill="#737373"/>
</svg>
