<svg width="65" height="65" viewBox="0 0 65 65" fill="none" xmlns="http://www.w3.org/2000/svg">
<circle cx="32.0469" cy="32.6953" r="32" fill="#FFF5F3"/>
<path fill-rule="evenodd" clip-rule="evenodd" d="M20.7129 30.4536C20.7129 24.3205 25.8381 19.3633 32.0375 19.3633C38.2544 19.3633 43.3796 24.3205 43.3796 30.4536C43.3796 33.5442 42.2556 36.4135 40.4056 38.8454C38.3646 41.528 35.8491 43.8652 33.0176 45.6999C32.3696 46.1238 31.7847 46.1558 31.0735 45.6999C28.2259 43.8652 25.7103 41.528 23.6869 38.8454C21.8355 36.4135 20.7129 33.5442 20.7129 30.4536ZM28.3052 30.7989C28.3052 32.8536 29.9818 34.4695 32.0375 34.4695C34.0945 34.4695 35.7873 32.8536 35.7873 30.7989C35.7873 28.7603 34.0945 27.0657 32.0375 27.0657C29.9818 27.0657 28.3052 28.7603 28.3052 30.7989Z" fill="url(#paint0_linear_1200_13619)"/>
<defs>
<linearGradient id="paint0_linear_1200_13619" x1="43.3796" y1="32.6966" x2="20.7129" y2="32.6966" gradientUnits="userSpaceOnUse">
<stop stop-color="#F5845F"/>
<stop offset="1" stop-color="#F05C77"/>
</linearGradient>
</defs>
</svg>
