<svg width="65" height="65" viewBox="0 0 65 65" fill="none" xmlns="http://www.w3.org/2000/svg">
<circle cx="32.0469" cy="32.6953" r="32" fill="#FFF5F3"/>
<path fill-rule="evenodd" clip-rule="evenodd" d="M36.9859 23.6953C38.3269 23.6953 39.6169 24.2253 40.5659 25.1763C41.5159 26.1253 42.0469 27.4053 42.0469 28.7453V36.6453C42.0469 39.4353 39.7769 41.6953 36.9859 41.6953H27.1069C24.3159 41.6953 22.0469 39.4353 22.0469 36.6453V28.7453C22.0469 25.9553 24.3059 23.6953 27.1069 23.6953H36.9859ZM38.5769 30.2353L38.6569 30.1553C38.8959 29.8653 38.8959 29.4453 38.6459 29.1553C38.5069 29.0063 38.3159 28.9153 38.1169 28.8953C37.9069 28.8843 37.7069 28.9553 37.5559 29.0953L33.0469 32.6953C32.4669 33.1763 31.6359 33.1763 31.0469 32.6953L26.5469 29.0953C26.2359 28.8653 25.8059 28.8953 25.5469 29.1653C25.2769 29.4353 25.2469 29.8653 25.4759 30.1653L25.6069 30.2953L30.1569 33.8453C30.7169 34.2853 31.3959 34.5253 32.1069 34.5253C32.8159 34.5253 33.5069 34.2853 34.0659 33.8453L38.5769 30.2353Z" fill="url(#paint0_linear_1200_13631)"/>
<defs>
<linearGradient id="paint0_linear_1200_13631" x1="42.0469" y1="32.6953" x2="22.0469" y2="32.6953" gradientUnits="userSpaceOnUse">
<stop stop-color="#F5845F"/>
<stop offset="1" stop-color="#F05C77"/>
</linearGradient>
</defs>
</svg>
