<svg width="15" height="17" viewBox="0 0 15 17" fill="none" xmlns="http://www.w3.org/2000/svg">
<g clip-path="url(#clip0_1286_1305)">
<path d="M14.6071 6.91516C13.2303 6.91845 11.8874 6.48939 10.7679 5.68859V11.2736C10.7675 12.308 10.4511 13.3176 9.86104 14.1675C9.27096 15.0174 8.4353 15.6669 7.46581 16.0294C6.49632 16.3918 5.43921 16.4499 4.43583 16.1957C3.43245 15.9416 2.53062 15.3874 1.85094 14.6072C1.17126 13.827 0.746112 12.8581 0.632356 11.83C0.5186 10.8018 0.721654 9.7635 1.21437 8.8538C1.70708 7.9441 2.46596 7.2064 3.38955 6.73934C4.31314 6.27228 5.3574 6.09812 6.3827 6.24016V9.04922C5.91352 8.90174 5.4097 8.90618 4.9432 9.06191C4.4767 9.21764 4.07136 9.5167 3.78508 9.91636C3.4988 10.316 3.34621 10.7959 3.34911 11.2874C3.35201 11.7789 3.51024 12.2569 3.80121 12.6532C4.09218 13.0494 4.50102 13.3437 4.96932 13.4939C5.43763 13.6442 5.94146 13.6427 6.40888 13.4897C6.87629 13.3367 7.28337 13.04 7.57199 12.642C7.86062 12.244 8.01602 11.7651 8.01601 11.2736V0.355469H10.7679C10.766 0.5877 10.7854 0.819615 10.826 1.04828C10.9217 1.55874 11.1205 2.04435 11.4104 2.47539C11.7002 2.90643 12.0751 3.27384 12.5119 3.55516C13.1334 3.96581 13.862 4.18469 14.6071 4.18453V6.91516Z" fill="#737373"/>
</g>
<defs>
<clipPath id="clip0_1286_1305">
<rect width="14.0096" height="16" fill="white" transform="translate(0.597656 0.355469)"/>
</clipPath>
</defs>
</svg>
