<svg width="25" height="24" viewBox="0 0 25 24" fill="none" xmlns="http://www.w3.org/2000/svg">
<mask id="mask0_1253_914" style="mask-type:luminance" maskUnits="userSpaceOnUse" x="2" y="3" width="21" height="20">
<path fill-rule="evenodd" clip-rule="evenodd" d="M2.38281 3H22.8553V22.501H2.38281V3Z" fill="white"/>
</mask>
<g mask="url(#mask0_1253_914)">
<path fill-rule="evenodd" clip-rule="evenodd" d="M4.20677 12.1231C5.60877 16.4851 11.1478 20.0121 12.6198 20.8851C14.0968 20.0031 19.6758 16.4371 21.0328 12.1271C21.9238 9.34112 21.0968 5.81212 17.8108 4.75312C16.2188 4.24212 14.3618 4.55312 13.0798 5.54512C12.8118 5.75112 12.4398 5.75512 12.1698 5.55112C10.8118 4.53012 9.03777 4.23112 7.42077 4.75312C4.13977 5.81112 3.31577 9.34012 4.20677 12.1231ZM12.6208 22.5011C12.4968 22.5011 12.3738 22.4711 12.2618 22.4101C11.9488 22.2391 4.57577 18.1751 2.77877 12.5811C2.77777 12.5811 2.77777 12.5801 2.77777 12.5801C1.64977 9.05812 2.90577 4.63212 6.96077 3.32512C8.86477 2.70912 10.9398 2.98012 12.6178 4.03912C14.2438 3.01112 16.4038 2.72712 18.2698 3.32512C22.3288 4.63412 23.5888 9.05912 22.4618 12.5801C20.7228 18.1101 13.2958 22.2351 12.9808 22.4081C12.8688 22.4701 12.7448 22.5011 12.6208 22.5011Z" fill="#737373"/>
</g>
<path fill-rule="evenodd" clip-rule="evenodd" d="M18.5375 10.6243C18.1505 10.6243 17.8225 10.3273 17.7905 9.93529C17.7245 9.11329 17.1745 8.41929 16.3915 8.16629C15.9965 8.03829 15.7805 7.61529 15.9075 7.22229C16.0365 6.82829 16.4555 6.61429 16.8515 6.73829C18.2145 7.17929 19.1695 8.38629 19.2865 9.81329C19.3195 10.2263 19.0125 10.5883 18.5995 10.6213C18.5785 10.6233 18.5585 10.6243 18.5375 10.6243Z" fill="#737373"/>
</svg>
