<svg width="25" height="25" viewBox="0 0 25 25" fill="none" xmlns="http://www.w3.org/2000/svg">
<mask id="mask0_1286_1071" style="mask-type:luminance" maskUnits="userSpaceOnUse" x="2" y="3" width="21" height="21">
<path fill-rule="evenodd" clip-rule="evenodd" d="M2.39648 3.78906H22.869V23.2901H2.39648V3.78906Z" fill="white"/>
</mask>
<g mask="url(#mask0_1286_1071)">
<path fill-rule="evenodd" clip-rule="evenodd" d="M4.22044 12.9122C5.62244 17.2742 11.1614 20.8012 12.6334 21.6742C14.1104 20.7922 19.6894 17.2262 21.0464 12.9162C21.9374 10.1302 21.1104 6.60118 17.8244 5.54218C16.2324 5.03118 14.3754 5.34218 13.0934 6.33418C12.8254 6.54018 12.4534 6.54418 12.1834 6.34018C10.8254 5.31918 9.05144 5.02018 7.43444 5.54218C4.15344 6.60018 3.32944 10.1292 4.22044 12.9122ZM12.6344 23.2902C12.5104 23.2902 12.3874 23.2602 12.2754 23.1992C11.9624 23.0282 4.58944 18.9642 2.79244 13.3702C2.79144 13.3702 2.79144 13.3692 2.79144 13.3692C1.66344 9.84718 2.91944 5.42118 6.97444 4.11418C8.87844 3.49818 10.9534 3.76918 12.6314 4.82818C14.2574 3.80018 16.4174 3.51618 18.2834 4.11418C22.3424 5.42318 23.6024 9.84818 22.4754 13.3692C20.7364 18.8992 13.3094 23.0242 12.9944 23.1972C12.8824 23.2592 12.7584 23.2902 12.6344 23.2902Z" fill="white"/>
</g>
<path fill-rule="evenodd" clip-rule="evenodd" d="M18.5511 11.4133C18.1641 11.4133 17.8361 11.1163 17.8041 10.7243C17.7381 9.90235 17.1881 9.20835 16.4051 8.95535C16.0101 8.82735 15.7941 8.40435 15.9211 8.01135C16.0501 7.61735 16.4691 7.40335 16.8651 7.52735C18.2281 7.96835 19.1831 9.17535 19.3001 10.6023C19.3331 11.0153 19.0261 11.3773 18.6131 11.4103C18.5921 11.4123 18.5721 11.4133 18.5511 11.4133Z" fill="white"/>
</svg>
