<svg width="72" height="72" viewBox="0 0 72 72" fill="none" xmlns="http://www.w3.org/2000/svg">
<circle cx="36" cy="36" r="36" fill="#FFF5F3"/>
<g clip-path="url(#clip0_1249_2312)">
<path d="M48.801 51.4647L28.6758 55.003C28.6899 54.731 28.6864 54.5419 28.7111 54.3643C29.8626 45.8325 31.0137 37.3007 32.1644 28.7689C32.2139 28.3976 32.374 28.2858 32.7331 28.2673C38.281 27.9853 43.8281 27.6966 49.3744 27.4015C50.2468 27.3554 51.1181 27.3035 51.9894 27.2539L52.0047 27.3611C51.8222 27.3946 51.642 27.4303 51.4595 27.4591C45.8151 28.3669 40.1707 29.2708 34.5263 30.1709C34.0894 30.2389 33.9446 30.4118 33.8893 30.8257C32.9591 37.7988 32.0172 44.7706 31.0635 51.7414C30.9835 52.3317 30.9858 52.3478 31.5698 52.3178C34.8265 52.1426 38.0839 51.962 41.3422 51.7759C43.7048 51.6437 46.0686 51.51 48.4336 51.3747C48.5514 51.3678 48.6691 51.3747 48.7868 51.3747L48.801 51.4647Z" fill="url(#paint0_linear_1249_2312)"/>
<path d="M29.2292 48.1827C29.1385 48.8595 29.0667 49.451 28.9702 50.0366C28.9546 50.0897 28.9262 50.1383 28.8875 50.1784C28.8488 50.2185 28.8008 50.249 28.7476 50.2672C27.5373 50.4978 26.3246 50.7065 25 50.9417C25.0377 50.6673 25.0636 50.4748 25.0895 50.2834C26.1201 42.6739 27.1499 35.0675 28.179 27.4642C28.2967 26.5684 28.4015 25.6691 28.4992 24.771C28.5428 24.3766 28.71 24.1945 29.148 24.1772C30.814 24.1126 32.4788 24.0192 34.1436 23.9201C34.4592 23.9016 34.5651 24.0019 34.5746 24.3052C34.6111 25.495 34.6193 25.4985 33.4207 25.6991C32.5542 25.8432 31.6876 25.9873 30.8175 26.1049C30.4525 26.1545 30.2865 26.2952 30.2359 26.6745C29.2955 33.7036 28.3442 40.7324 27.3819 47.7607C27.3277 48.1585 27.4325 48.2934 27.8528 48.2484C28.2732 48.2035 28.7041 48.2035 29.2292 48.1827Z" fill="url(#paint1_linear_1249_2312)"/>
<path d="M43.8223 25.783C43.8223 24.9759 43.7881 24.1688 43.8223 23.3618C43.8682 22.2492 43.8081 21.1712 43.1158 20.2234C42.2575 19.0394 41.0742 18.4848 39.6154 18.6185C38.192 18.7488 37.1017 19.4694 36.5542 20.778C36.2563 21.4825 36.1421 22.263 35.9573 23.0124C35.6323 24.3291 35.318 25.6481 34.9977 26.9659C34.9856 27.0144 34.9619 27.0593 34.9285 27.097C34.8952 27.1347 34.8531 27.1641 34.8058 27.1826C34.8058 26.6972 34.7822 26.2095 34.8117 25.7242C34.9106 24.0824 34.8941 22.4186 35.1731 20.8057C35.5028 18.8999 36.8215 17.6927 38.7136 17.1946C40.5668 16.7104 42.2363 17.1474 43.5821 18.5148C44.8572 19.8084 45.1939 21.3614 44.7395 23.0874C44.5464 23.8218 44.3415 24.5528 44.1366 25.278C44.0872 25.4544 44.0189 25.6238 43.953 25.7979L43.8223 25.783Z" fill="url(#paint2_linear_1249_2312)"/>
<path d="M35.75 25.3088C35.8677 24.8154 35.9454 24.4026 36.0808 24.0095C36.115 23.9103 36.3352 23.8238 36.4753 23.8158C38.6605 23.6889 40.8465 23.571 43.0334 23.4618C43.2265 23.4514 43.4725 23.3707 43.5126 23.6924C43.5526 24.0141 43.3807 24.0971 43.1052 24.1409C41.2367 24.4349 39.3705 24.737 37.5043 25.0356L35.75 25.3088Z" fill="url(#paint3_linear_1249_2312)"/>
<path d="M48.456 23.2745L44.9414 23.8383C44.8355 23.4532 45.0086 23.3517 45.3112 23.3367C46.3496 23.2849 47.3881 23.2272 48.4265 23.1719L48.456 23.2745Z" fill="url(#paint4_linear_1249_2312)"/>
</g>
<defs>
<linearGradient id="paint0_linear_1249_2312" x1="55.4733" y1="55.9554" x2="14.1469" y2="13.7539" gradientUnits="userSpaceOnUse">
<stop stop-color="#EF457D"/>
<stop offset="1" stop-color="#FBAD18"/>
</linearGradient>
<linearGradient id="paint1_linear_1249_2312" x1="52.0459" y1="59.311" x2="10.7195" y2="17.1095" gradientUnits="userSpaceOnUse">
<stop stop-color="#EF457D"/>
<stop offset="1" stop-color="#FBAD18"/>
</linearGradient>
<linearGradient id="paint2_linear_1249_2312" x1="64.2371" y1="47.3719" x2="22.9107" y2="5.1704" gradientUnits="userSpaceOnUse">
<stop stop-color="#EF457D"/>
<stop offset="1" stop-color="#FBAD18"/>
</linearGradient>
<linearGradient id="paint3_linear_1249_2312" x1="63.6425" y1="47.9574" x2="22.3172" y2="5.75475" gradientUnits="userSpaceOnUse">
<stop stop-color="#EF457D"/>
<stop offset="1" stop-color="#FBAD18"/>
</linearGradient>
<linearGradient id="paint4_linear_1249_2312" x1="67.6487" y1="44.0322" x2="26.3235" y2="1.82953" gradientUnits="userSpaceOnUse">
<stop stop-color="#EF457D"/>
<stop offset="1" stop-color="#FBAD18"/>
</linearGradient>
<clipPath id="clip0_1249_2312">
<rect width="27" height="38" fill="white" transform="translate(25 17)"/>
</clipPath>
</defs>
</svg>
