<svg width="731" height="330" viewBox="0 0 731 330" fill="none" xmlns="http://www.w3.org/2000/svg">
<g clip-path="url(#clip0_1257_8345)">
<path d="M202.16 298.912L31.2305 329.602C31.3505 327.242 31.3205 325.602 31.5305 324.062C41.3105 250.062 51.0871 176.062 60.8605 102.062C61.2805 98.8419 62.6405 97.8719 65.6905 97.7119C112.81 95.2652 159.924 92.7619 207.03 90.2019C214.44 89.8019 221.84 89.3519 229.24 88.9219L229.37 89.8519C227.82 90.1419 226.29 90.4519 224.74 90.7019C176.8 98.5752 128.86 106.415 80.9205 114.222C77.2105 114.812 75.9805 116.312 75.5105 119.902C67.6105 180.382 59.6105 240.852 51.5105 301.312C50.8305 306.432 50.8505 306.572 55.8105 306.312C83.4705 304.792 111.137 303.225 138.81 301.612C158.877 300.465 178.954 299.305 199.04 298.132C200.04 298.072 201.04 298.132 202.04 298.132L202.16 298.912Z" fill="url(#paint0_linear_1257_8345)"/>
<path d="M35.92 270.458C35.15 276.328 34.54 281.458 33.72 286.538C33.5874 286.998 33.3466 287.42 33.0178 287.768C32.689 288.116 32.2818 288.38 31.83 288.538C21.55 290.538 11.25 292.348 0 294.388C0.32 292.008 0.539994 290.338 0.759995 288.678C9.51333 222.678 18.26 156.705 27 90.7583C28 82.9883 28.89 75.1883 29.72 67.3983C30.09 63.9783 31.51 62.3983 35.23 62.2483C49.38 61.6883 63.52 60.8783 77.66 60.0183C80.34 59.8583 81.24 60.7283 81.32 63.3583C81.63 73.6783 81.7 73.7083 71.52 75.4483C64.16 76.6983 56.8 77.9483 49.41 78.9683C46.31 79.3983 44.9 80.6183 44.47 83.9083C36.4833 144.875 28.4033 205.838 20.23 266.798C19.77 270.248 20.66 271.418 24.23 271.028C27.8 270.638 31.46 270.638 35.92 270.458Z" fill="url(#paint1_linear_1257_8345)"/>
<path d="M159.871 76.1795C159.871 69.1795 159.581 62.1795 159.871 55.1795C160.261 45.5295 159.751 36.1795 153.871 27.9595C146.581 17.6895 136.531 12.8795 124.141 14.0395C112.051 15.1695 102.791 21.4195 98.1406 32.7695C95.6106 38.8795 94.6406 45.6495 93.0706 52.1495C90.3106 63.5695 87.6406 75.0095 84.9206 86.4395C84.8181 86.86 84.6167 87.2499 84.3332 87.5768C84.0497 87.9038 83.6923 88.1584 83.2906 88.3195C83.2906 84.1095 83.0906 79.8795 83.3406 75.6695C84.1806 61.4295 84.0406 46.9995 86.4106 33.0095C89.2106 16.4795 100.411 6.00953 116.481 1.68953C132.221 -2.51047 146.401 1.27951 157.831 13.1395C168.661 24.3595 171.521 37.8295 167.661 52.7995C166.021 59.1695 164.281 65.5095 162.541 71.7995C162.121 73.3295 161.541 74.7995 160.981 76.3095L159.871 76.1795Z" fill="url(#paint2_linear_1257_8345)"/>
<path d="M91.2891 72.0615C92.2891 67.7815 92.9491 64.2015 94.0991 60.7915C94.3891 59.9315 96.2591 59.1815 97.4491 59.1115C116.009 58.0115 134.576 56.9882 153.149 56.0415C154.789 55.9515 156.879 55.2515 157.219 58.0415C157.559 60.8315 156.099 61.5515 153.759 61.9315C137.889 64.4815 122.039 67.1015 106.189 69.6915L91.2891 72.0615Z" fill="url(#paint3_linear_1257_8345)"/>
<path d="M199.229 54.4095L169.379 59.2995C168.479 55.9595 169.949 55.0795 172.519 54.9495C181.339 54.4995 190.159 53.9995 198.979 53.5195L199.229 54.4095Z" fill="url(#paint4_linear_1257_8345)"/>
<path d="M84.1504 238.528L101.6 155.988H123.67L106.23 238.528H84.1504Z" fill="#4E4E4F"/>
<path d="M151.67 239.661C147.55 239.703 143.475 238.796 139.76 237.011C136.075 235.164 133.05 232.223 131.1 228.591C128.933 224.751 127.85 219.751 127.85 213.591C127.83 209.28 128.351 204.983 129.4 200.801C130.376 196.924 131.887 193.202 133.89 189.741C135.778 186.479 138.19 183.55 141.03 181.071C143.841 178.643 147.066 176.739 150.55 175.451C154.235 174.098 158.134 173.42 162.06 173.451C165.734 173.417 169.4 173.792 172.99 174.571C176.362 175.36 179.643 176.496 182.78 177.961L175.84 194.171C173.81 193.261 171.726 192.477 169.6 191.821C167.509 191.168 165.331 190.831 163.14 190.821C160.98 190.782 158.881 191.536 157.24 192.941C155.49 194.443 154.076 196.297 153.09 198.381C151.993 200.608 151.167 202.958 150.63 205.381C150.11 207.615 149.835 209.898 149.81 212.191C149.733 214.19 150.021 216.186 150.66 218.081C151.088 219.367 151.946 220.466 153.09 221.191C154.243 221.837 155.549 222.159 156.87 222.121C159.548 222.128 162.207 221.689 164.74 220.821C167.531 219.848 170.242 218.661 172.85 217.271V234.601C169.844 236.217 166.659 237.475 163.36 238.351C159.537 239.293 155.607 239.734 151.67 239.661Z" fill="#4E4E4F"/>
<path d="M210.73 239.66C206.114 239.802 201.533 238.821 197.38 236.8C193.777 234.951 190.844 232.02 188.99 228.42C186.961 224.266 185.973 219.681 186.11 215.06C186.099 210.793 186.592 206.54 187.58 202.39C188.52 198.413 190.001 194.585 191.98 191.01C193.883 187.568 196.332 184.458 199.23 181.8C202.175 179.141 205.59 177.055 209.3 175.65C213.411 174.131 217.768 173.385 222.15 173.45C226.768 173.314 231.349 174.302 235.5 176.33C239.102 178.177 242.033 181.108 243.88 184.71C245.908 188.861 246.896 193.442 246.76 198.06C246.77 202.329 246.28 206.585 245.3 210.74C244.361 214.715 242.877 218.541 240.89 222.11C238.98 225.552 236.521 228.66 233.61 231.31C230.665 233.976 227.246 236.065 223.53 237.47C219.433 238.976 215.095 239.718 210.73 239.66ZM213.16 223.29C214.512 223.26 215.807 222.737 216.8 221.82C218.074 220.684 219.134 219.329 219.93 217.82C220.936 215.95 221.75 213.983 222.36 211.95C223.059 209.659 223.587 207.319 223.94 204.95C224.312 202.464 224.5 199.954 224.5 197.44C224.54 196.033 224.341 194.63 223.91 193.29C223.605 192.311 223.026 191.439 222.24 190.78C221.5 190.207 220.586 189.907 219.65 189.93C218.298 189.956 217.002 190.48 216.01 191.4C214.739 192.533 213.685 193.888 212.9 195.4C211.91 197.263 211.106 199.219 210.5 201.24C209.801 203.549 209.283 205.91 208.95 208.3C208.591 210.797 208.41 213.317 208.41 215.84C208.286 217.794 208.719 219.743 209.66 221.46C210.031 222.046 210.55 222.524 211.164 222.845C211.779 223.166 212.467 223.32 213.16 223.29Z" fill="#4E4E4F"/>
<path d="M252.84 238.532L266.34 174.532H283.78L283.1 183.462H283.56C284.767 181.277 286.332 179.31 288.19 177.642C289.858 176.186 291.809 175.089 293.92 174.422C296.27 173.716 298.716 173.378 301.17 173.422C305.17 173.422 308.397 174.248 310.85 175.902C313.281 177.517 315.178 179.817 316.3 182.512C317.495 185.388 318.09 188.477 318.05 191.592C318.046 193.774 317.915 195.954 317.66 198.122C317.393 200.362 317.06 202.495 316.66 204.522L309.49 238.522H287.62L294.9 203.632C295.13 202.632 295.36 201.402 295.58 199.882C295.799 198.469 295.913 197.041 295.92 195.612C295.97 194.953 295.887 194.29 295.674 193.664C295.46 193.039 295.122 192.463 294.68 191.972C294.287 191.578 293.819 191.269 293.303 191.061C292.788 190.853 292.236 190.751 291.68 190.762C290.135 190.805 288.666 191.442 287.58 192.542C286.038 194.086 284.83 195.931 284.03 197.962C282.773 200.969 281.835 204.099 281.23 207.302L274.68 238.522L252.84 238.532Z" fill="#4E4E4F"/>
<path d="M324.77 238.529L338.26 174.529H360.26L346.66 238.529H324.77ZM351.699 168.469C349.017 168.569 346.357 167.954 343.99 166.689C341.943 165.503 340.92 163.443 340.92 160.509C340.841 158.256 341.366 156.022 342.44 154.039C343.45 152.288 344.976 150.891 346.81 150.039C348.968 149.087 351.311 148.626 353.67 148.689C356.294 148.621 358.892 149.235 361.21 150.469C363.336 151.649 364.4 153.709 364.4 156.649C364.472 158.208 364.235 159.767 363.703 161.234C363.171 162.701 362.354 164.049 361.3 165.199C359.253 167.386 356.053 168.476 351.699 168.469Z" fill="#4E4E4F"/>
<path d="M389.639 239.661C385.515 239.704 381.437 238.797 377.719 237.011C374.034 235.164 371.009 232.223 369.059 228.591C366.886 224.751 365.802 219.751 365.809 213.591C365.789 209.28 366.31 204.983 367.359 200.801C368.339 196.926 369.85 193.204 371.849 189.741C373.737 186.479 376.149 183.55 378.989 181.071C381.8 178.643 385.025 176.739 388.509 175.451C392.194 174.098 396.093 173.42 400.019 173.451C403.693 173.417 407.359 173.792 410.949 174.571C414.321 175.359 417.602 176.495 420.739 177.961L413.799 194.171C411.769 193.261 409.685 192.477 407.559 191.821C405.468 191.167 403.29 190.83 401.099 190.821C398.939 190.782 396.84 191.536 395.199 192.941C393.449 194.443 392.035 196.297 391.049 198.381C389.956 200.61 389.131 202.959 388.589 205.381C388.074 207.616 387.799 209.899 387.769 212.191C387.697 214.19 387.985 216.185 388.619 218.081C389.05 219.365 389.908 220.463 391.049 221.191C392.202 221.837 393.508 222.159 394.829 222.121C397.51 222.128 400.173 221.689 402.709 220.821C405.497 219.85 408.205 218.663 410.809 217.271V234.601C407.803 236.218 404.618 237.477 401.319 238.351C397.499 239.294 393.573 239.734 389.639 239.661Z" fill="#4E4E4F"/>
<path d="M473.079 239.659C469.129 239.678 465.192 239.204 461.359 238.249C457.973 237.444 454.741 236.093 451.789 234.249V214.479C455.157 216.485 458.727 218.131 462.439 219.389C466.065 220.737 469.892 221.464 473.759 221.539C474.998 221.56 476.234 221.406 477.429 221.079C478.387 220.824 479.287 220.386 480.079 219.789C480.785 219.229 481.339 218.5 481.689 217.669C482.062 216.759 482.246 215.783 482.229 214.799C482.229 213.402 481.795 212.04 480.989 210.899C480.034 209.561 478.904 208.357 477.629 207.319C476.222 206.133 474.672 204.843 472.979 203.449C470.569 201.497 468.346 199.324 466.339 196.959C464.464 194.748 462.977 192.236 461.939 189.529C459.703 183.245 459.892 176.352 462.469 170.199C463.866 167.084 465.911 164.302 468.469 162.039C471.171 159.658 474.318 157.836 477.729 156.679C481.558 155.387 485.578 154.752 489.619 154.799C493.968 154.785 498.302 155.315 502.519 156.379C506.492 157.358 510.319 158.858 513.899 160.839L506.229 177.609C503.549 176.278 500.787 175.118 497.959 174.139C495.344 173.195 492.59 172.691 489.809 172.649C488.503 172.601 487.2 172.802 485.969 173.239C485.103 173.554 484.327 174.076 483.709 174.759C483.2 175.337 482.825 176.02 482.609 176.759C482.406 177.438 482.301 178.141 482.299 178.849C482.297 180.009 482.557 181.154 483.059 182.199C483.762 183.534 484.689 184.738 485.799 185.759C487.559 187.433 489.426 188.99 491.389 190.419C494.149 192.409 496.66 194.722 498.869 197.309C500.719 199.487 502.162 201.98 503.129 204.669C504.054 207.407 504.51 210.28 504.479 213.169C504.539 216.962 503.832 220.727 502.399 224.239C501.041 227.458 498.952 230.317 496.299 232.589C493.415 235.003 490.061 236.791 486.449 237.839C482.108 239.11 477.602 239.724 473.079 239.659Z" fill="#4E4E4F"/>
<path d="M535.86 239.661C530.287 239.661 526.06 238.464 523.18 236.071C520.3 233.677 518.86 229.754 518.86 224.301C518.882 222.526 519.026 220.756 519.29 219.001C519.57 217.001 519.88 215.231 520.22 213.691L524.96 190.991H516.23L518.54 180.271L530.85 175.271L538.62 161.801H553.23L550.46 174.611H566.72L563.17 191.041H546.81L542.07 212.671C541.84 213.761 541.63 214.861 541.45 215.971C541.284 216.835 541.187 217.711 541.16 218.591C541.111 219.093 541.175 219.601 541.348 220.075C541.521 220.549 541.799 220.979 542.16 221.331C542.891 221.903 543.803 222.194 544.73 222.151C546.377 222.12 548.013 221.864 549.59 221.391C551.447 220.862 553.273 220.231 555.06 219.501V235.931C552.427 237.184 549.649 238.111 546.79 238.691C543.192 239.399 539.528 239.724 535.86 239.661Z" fill="#4E4E4F"/>
<path d="M566.97 266.309C565.175 266.33 563.38 266.226 561.6 265.999C560.479 265.84 559.367 265.623 558.27 265.349V248.009C558.99 248.159 559.87 248.319 560.92 248.469C562.08 248.623 563.249 248.697 564.42 248.689C567.276 248.827 570.106 248.087 572.53 246.569C574.824 244.879 576.705 242.691 578.03 240.169L579.33 237.849L570.23 174.559H592.23L594.44 203.979C594.55 205.259 594.61 206.509 594.63 207.729C594.65 208.949 594.63 210.139 594.63 211.289C594.63 212.439 594.63 213.579 594.55 214.709H595C595.38 213.539 595.79 212.289 596.24 210.949C596.69 209.609 597.16 208.309 597.65 207.029C598.14 205.749 598.58 204.659 598.95 203.749L611.54 174.559H635.03L597.2 246.559C595.19 250.58 592.602 254.286 589.52 257.559C586.795 260.412 583.482 262.637 579.81 264.079C575.708 265.623 571.352 266.38 566.97 266.309Z" fill="#4E4E4F"/>
<path d="M629.74 238.53L648.32 150.68H670.17L651.59 238.53H629.74Z" fill="#4E4E4F"/>
<path d="M696.08 239.661C691.324 239.803 686.608 238.754 682.36 236.611C678.669 234.649 675.665 231.607 673.75 227.891C671.67 223.694 670.64 219.054 670.75 214.371C670.736 209.225 671.487 204.105 672.98 199.181C674.397 194.414 676.693 189.953 679.75 186.031C682.819 182.116 686.747 178.958 691.23 176.801C696.302 174.442 701.849 173.285 707.44 173.421C714.627 173.421 720.263 175.037 724.35 178.271C726.323 179.786 727.906 181.749 728.971 183.997C730.035 186.245 730.549 188.715 730.47 191.201C730.525 194.519 729.842 197.809 728.47 200.831C727.042 203.786 724.897 206.337 722.23 208.251C719.003 210.514 715.37 212.133 711.53 213.021C706.483 214.214 701.306 214.775 696.12 214.691H692.79V215.591C692.79 218.451 693.56 220.557 695.1 221.911C696.65 223.271 698.96 223.911 702.05 223.911C705.176 223.931 708.284 223.438 711.25 222.451C714.456 221.335 717.572 219.974 720.57 218.381V233.901C717.167 235.619 713.611 237.018 709.95 238.081C705.421 239.241 700.754 239.772 696.08 239.661ZM694.95 201.041H696.59C699.249 201.152 701.902 200.709 704.38 199.741C706.049 199.085 707.483 197.947 708.5 196.471C709.283 195.3 709.714 193.929 709.74 192.521C709.774 191.396 709.369 190.302 708.61 189.471C708.131 189.02 707.561 188.676 706.939 188.462C706.316 188.249 705.655 188.17 705 188.231C703.237 188.267 701.557 188.984 700.31 190.231C698.822 191.635 697.617 193.312 696.76 195.171C695.857 197.022 695.246 199.002 694.95 201.041Z" fill="#4E4E4F"/>
</g>
<defs>
<linearGradient id="paint0_linear_1257_8345" x1="258.83" y1="337.862" x2="-99.6895" y2="-20.6482" gradientUnits="userSpaceOnUse">
<stop stop-color="#EF457D"/>
<stop offset="1" stop-color="#FBAD18"/>
</linearGradient>
<linearGradient id="paint1_linear_1257_8345" x1="229.71" y1="366.978" x2="-128.81" y2="8.4684" gradientUnits="userSpaceOnUse">
<stop stop-color="#EF457D"/>
<stop offset="1" stop-color="#FBAD18"/>
</linearGradient>
<linearGradient id="paint2_linear_1257_8345" x1="333.261" y1="263.429" x2="-25.2593" y2="-95.0806" gradientUnits="userSpaceOnUse">
<stop stop-color="#EF457D"/>
<stop offset="1" stop-color="#FBAD18"/>
</linearGradient>
<linearGradient id="paint3_linear_1257_8345" x1="328.189" y1="268.502" x2="-30.3214" y2="-90.0182" gradientUnits="userSpaceOnUse">
<stop stop-color="#EF457D"/>
<stop offset="1" stop-color="#FBAD18"/>
</linearGradient>
<linearGradient id="paint4_linear_1257_8345" x1="362.239" y1="234.449" x2="3.72913" y2="-124.071" gradientUnits="userSpaceOnUse">
<stop stop-color="#EF457D"/>
<stop offset="1" stop-color="#FBAD18"/>
</linearGradient>
<clipPath id="clip0_1257_8345">
<rect width="730.46" height="329.59" fill="white"/>
</clipPath>
</defs>
</svg>
